<svg width="334" height="334" viewBox="0 0 334 334" fill="none" xmlns="http://www.w3.org/2000/svg">
<path d="M201.444 170.653V162.303H178.481V170.653C178.481 175.35 174.828 179.003 170.653 179.003H209.794C205.097 179.003 201.444 175.35 201.444 170.653Z" fill="#FFDD67"/>
<path d="M160.216 179.003H219.187V205.619H160.216V179.003Z" fill="#FFDD67"/>
<path d="M135.166 179.003C127.859 179.003 124.206 183.178 121.597 185.787L38.0969 280.769H54.7969C67.8438 280.769 72.0188 276.072 75.6719 271.897L157.606 179.003H135.166Z" fill="#75A843"/>
<path d="M25.5719 228.581L50.6219 243.716C55.3187 246.325 61.0594 245.281 64.1906 240.584C67.3219 236.409 65.7562 230.147 61.0594 227.538L36.0094 212.403C31.3125 209.794 25.5719 210.838 22.4406 215.534C19.8312 219.709 21.3969 225.972 25.5719 228.581Z" fill="#EBA352"/>
<path d="M92.3719 252.066C92.3719 255.197 89.7625 257.806 86.6313 257.806H38.6188C35.4875 257.806 32.8782 255.197 32.8782 252.066V144.559C32.8782 141.428 35.4875 138.819 38.6188 138.819H86.1094C89.2407 138.819 91.85 141.428 91.85 144.559V252.066H92.3719Z" fill="#3E4347"/>
<path d="M62.625 168.044C65.7955 168.044 68.3657 165.474 68.3657 162.303C68.3657 159.133 65.7955 156.562 62.625 156.562C59.4546 156.562 56.8844 159.133 56.8844 162.303C56.8844 165.474 59.4546 168.044 62.625 168.044Z" fill="#B2C1C0"/>
<path d="M62.625 165.434C64.3544 165.434 65.7563 164.032 65.7563 162.303C65.7563 160.574 64.3544 159.172 62.625 159.172C60.8957 159.172 59.4938 160.574 59.4938 162.303C59.4938 164.032 60.8957 165.434 62.625 165.434Z" fill="#3E4347"/>
<path d="M66.8 268.766C66.8 275.55 61.5812 280.769 54.7969 280.769H32.8781C26.0938 280.769 20.875 275.55 20.875 268.766V228.581C20.875 221.797 26.0938 216.578 32.8781 216.578H55.3188C62.1031 216.578 67.3219 221.797 67.3219 228.581V268.766H66.8Z" fill="#FFDD67"/>
<path d="M278.681 129.947V151.866C278.681 156.041 281.813 159.172 285.988 159.172C290.163 159.172 293.294 156.041 293.294 151.866V129.947C293.294 125.772 290.163 122.641 285.988 122.641C281.813 122.641 278.681 125.772 278.681 129.947Z" fill="#EBA352"/>
<path d="M313.125 177.959C313.125 182.656 308.95 186.831 304.253 186.831H287.553C282.856 186.831 278.681 182.656 278.681 177.959V147.691C278.681 142.994 282.856 138.819 287.553 138.819H304.253C308.95 138.819 313.125 142.994 313.125 147.691V177.959Z" fill="#FFDD67"/>
<path d="M85.0656 149.778C85.0656 150.822 84.5437 151.344 83.5 151.344H80.3687C79.325 151.344 78.8031 150.822 78.8031 149.778V146.647C78.8031 145.603 79.325 145.081 80.3687 145.081H83.5C84.5437 145.081 85.0656 145.603 85.0656 146.647V149.778Z" fill="white"/>
<path d="M283.378 185.787C278.159 197.269 273.462 207.706 269.287 217.1C265.112 207.706 260.416 197.269 255.197 185.787C253.631 182.134 248.934 179.003 241.628 179.003H228.059C228.059 179.003 246.325 220.231 252.587 233.8C252.587 234.322 257.284 244.237 267.2 244.237H268.244C271.375 244.237 280.769 243.194 284.944 233.8L306.341 186.309H283.378V185.787Z" fill="#75A843"/>
<path d="M242.15 179.003H212.925C210.316 189.962 200.922 198.312 189.963 198.312C179.003 198.312 169.609 189.962 167 179.003H137.775V313.125C137.775 313.125 156.041 323.562 189.963 323.562C223.884 323.562 242.15 313.125 242.15 313.125V179.003Z" fill="#83BF4F"/>
<path d="M116.9 87.1533L124.206 100.722H255.197L260.938 86.1096C260.938 33.4002 248.413 10.9596 190.484 10.4377C131.513 9.91583 116.9 33.4002 116.9 87.1533Z" fill="#FFB300"/>
<path d="M255.719 86.1092C255.197 89.2404 254.675 91.8498 253.631 93.4154C252.066 96.5467 248.934 98.1123 248.934 98.1123C248.934 98.1123 249.978 92.3717 249.456 84.0217C246.325 35.4873 243.194 58.9717 189.962 58.9717C136.731 58.9717 133.6 35.4873 130.469 84.0217C129.947 92.3717 130.991 98.1123 130.991 98.1123C130.991 98.1123 127.859 96.5467 126.294 93.4154C125.25 91.8498 124.728 88.7186 124.206 86.1092C118.987 84.5436 112.725 86.1092 112.725 100.722C112.725 109.594 115.856 117.422 127.337 117.944C131.512 148.212 171.697 168.565 189.962 168.565C208.228 168.565 248.934 148.212 252.587 117.944C263.547 116.9 267.2 109.594 267.2 100.722C267.2 85.5873 260.416 84.5436 255.719 86.1092Z" fill="#FFDD67"/>
<path d="M162.303 113.247C168.644 113.247 173.784 108.106 173.784 101.765C173.784 95.4245 168.644 90.2842 162.303 90.2842C155.962 90.2842 150.822 95.4245 150.822 101.765C150.822 108.106 155.962 113.247 162.303 113.247Z" fill="#937237"/>
<path d="M217.1 113.247C223.441 113.247 228.581 108.106 228.581 101.765C228.581 95.4245 223.441 90.2842 217.1 90.2842C210.759 90.2842 205.619 95.4245 205.619 101.765C205.619 108.106 210.759 113.247 217.1 113.247Z" fill="#937237"/>
<path d="M210.838 139.34C210.838 147.169 200.4 151.344 189.963 151.344C179.525 151.344 169.088 147.169 169.088 139.34C169.088 139.34 169.088 137.253 171.175 137.253H208.75C210.838 137.253 210.838 139.34 210.838 139.34Z" fill="#937237"/>
</svg>
