<svg width="51" height="47" viewBox="0 0 51 47" fill="none" xmlns="http://www.w3.org/2000/svg">
<ellipse cx="25.8189" cy="23.1821" rx="24.8468" ry="23" fill="#2C2C2C"/>
<path d="M38.6736 17.2847C37.7742 17.6631 36.8047 17.9118 35.8003 18.0307C36.8281 17.4577 37.6223 16.5495 37.9961 15.4575C37.0267 15.9981 35.9521 16.3765 34.8191 16.5927C33.8964 15.6629 32.5999 15.1223 31.1282 15.1223C28.3834 15.1223 26.1408 17.1982 26.1408 19.7606C26.1408 20.1283 26.1875 20.485 26.2693 20.8202C22.1112 20.6256 18.4086 18.7768 15.9441 15.9765C15.5119 16.6576 15.2666 17.4577 15.2666 18.301C15.2666 19.912 16.1426 21.3392 17.4975 22.1501C16.6682 22.1501 15.8973 21.9339 15.2199 21.6095V21.6419C15.2199 23.8908 16.9486 25.7721 19.2379 26.1938C18.5029 26.38 17.7312 26.4059 16.9836 26.2695C17.3008 27.1911 17.9221 27.9976 18.7602 28.5756C19.5982 29.1535 20.6108 29.4738 21.6556 29.4914C19.8845 30.7893 17.6891 31.4909 15.4301 31.4808C15.033 31.4808 14.6359 31.4592 14.2388 31.4159C16.458 32.735 19.0977 33.5027 21.9243 33.5027C31.1282 33.5027 36.1857 26.4316 36.1857 20.3012C36.1857 20.0958 36.1857 19.9012 36.174 19.6958C37.1551 19.0471 37.9961 18.2253 38.6736 17.2847Z" fill="#E4E4E4"/>
</svg>
