<svg width="9" height="35" viewBox="0 0 9 35" fill="none" xmlns="http://www.w3.org/2000/svg">
<path d="M4.5 9.84285C5.39002 9.84285 6.26004 9.57865 7.00006 9.08366C7.74009 8.58867 8.31686 7.88513 8.65746 7.06199C8.99805 6.23885 9.08717 5.33309 8.91353 4.45926C8.7399 3.58542 8.31131 2.78275 7.68198 2.15274C7.05264 1.52274 6.25082 1.09371 5.37791 0.919888C4.50499 0.746071 3.60019 0.83528 2.77793 1.17623C1.95566 1.51719 1.25286 2.09458 0.758389 2.83538C0.263923 3.57618 2.42985e-06 4.44713 2.42985e-06 5.33809C0.00134237 6.53242 0.475879 7.67744 1.3195 8.52196C2.16312 9.36647 3.30694 9.84151 4.5 9.84285ZM4.5 3.08571C4.94501 3.08571 5.38002 3.21781 5.75003 3.46531C6.12004 3.7128 6.40843 4.06457 6.57873 4.47614C6.74903 4.88771 6.79358 5.34059 6.70677 5.77751C6.61995 6.21443 6.40566 6.61576 6.09099 6.93077C5.77632 7.24577 5.37541 7.46028 4.93895 7.54719C4.5025 7.6341 4.0501 7.5895 3.63896 7.41902C3.22783 7.24854 2.87643 6.95985 2.62919 6.58945C2.38196 6.21904 2.25 5.78357 2.25 5.33809C2.25067 4.74093 2.48794 4.16842 2.90975 3.74616C3.33156 3.3239 3.90347 3.08638 4.5 3.08571ZM4.5 25.6095C3.60999 25.6095 2.73996 25.8737 1.99994 26.3687C1.25992 26.8637 0.683138 27.5672 0.342544 28.3904C0.00194979 29.2135 -0.0871652 30.1193 0.0864682 30.9931C0.260102 31.867 0.688685 32.6696 1.31802 33.2996C1.94736 33.9296 2.74918 34.3587 3.62209 34.5325C4.49501 34.7063 5.39981 34.6171 6.22207 34.2761C7.04434 33.9352 7.74715 33.3578 8.24161 32.617C8.73608 31.8762 9 31.0052 9 30.1143C8.99866 28.92 8.52412 27.7749 7.6805 26.9304C6.83688 26.0859 5.69306 25.6109 4.5 25.6095ZM4.5 32.3667C4.05499 32.3667 3.61998 32.2346 3.24997 31.9871C2.87996 31.7396 2.59157 31.3878 2.42127 30.9762C2.25098 30.5647 2.20642 30.1118 2.29323 29.6749C2.38005 29.2379 2.59434 28.8366 2.90901 28.5216C3.22368 28.2066 3.62459 27.9921 4.06105 27.9052C4.4975 27.8183 4.9499 27.8629 5.36104 28.0333C5.77217 28.2038 6.12357 28.4925 6.37081 28.8629C6.61804 29.2333 6.75 29.6688 6.75 30.1143C6.74933 30.7114 6.51206 31.284 6.09025 31.7062C5.66844 32.1285 5.09653 32.366 4.5 32.3667ZM4.5 13.2214C3.60999 13.2214 2.73996 13.4856 1.99994 13.9806C1.25992 14.4756 0.683138 15.1791 0.342544 16.0023C0.00194979 16.8254 -0.0871652 17.7312 0.0864682 18.605C0.260102 19.4789 0.688685 20.2815 1.31802 20.9115C1.94736 21.5415 2.74918 21.9706 3.62209 22.1444C4.49501 22.3182 5.39981 22.229 6.22207 21.888C7.04434 21.5471 7.74715 20.9697 8.24161 20.2289C8.73608 19.4881 9 18.6171 9 17.7262C8.99866 16.5319 8.52412 15.3868 7.6805 14.5423C6.83688 13.6978 5.69306 13.2228 4.5 13.2214ZM4.5 19.9786C4.05499 19.9786 3.61998 19.8465 3.24997 19.599C2.87996 19.3515 2.59157 18.9997 2.42127 18.5881C2.25098 18.1766 2.20642 17.7237 2.29323 17.2868C2.38005 16.8498 2.59434 16.4485 2.90901 16.1335C3.22368 15.8185 3.62459 15.604 4.06105 15.5171C4.4975 15.4302 4.9499 15.4748 5.36104 15.6453C5.77217 15.8157 6.12357 16.1044 6.37081 16.4748C6.61804 16.8452 6.75 17.2807 6.75 17.7262C6.74933 18.3233 6.51206 18.8959 6.09025 19.3181C5.66844 19.7404 5.09653 19.9779 4.5 19.9786Z" fill="#545454"/>
</svg>
