<svg xmlns="http://www.w3.org/2000/svg" width="143" height="26" viewBox="0 0 143 26" fill="none">
  <g clip-path="url(#clip0_2187_19008)">
    <path d="M34.3191 20.2249C33.964 20.5945 33.463 20.779 32.8165 20.779C32.1699 20.779 31.6695 20.5945 31.3139 20.2249C30.9582 19.8553 30.7812 19.3333 30.7812 18.6581V9.98224H28.7364C28.1923 9.98224 27.7572 9.84033 27.4308 9.55701C27.1044 9.27369 26.9414 8.87705 26.9414 8.36759C26.9414 7.85813 27.1012 7.46149 27.4214 7.17817C27.7415 6.89485 28.1797 6.75293 28.7364 6.75293H36.8959C37.4528 6.75293 37.8909 6.89485 38.211 7.17817C38.5313 7.46149 38.6911 7.85813 38.6911 8.36759C38.6911 8.87705 38.5282 9.27369 38.2017 9.55701C37.8753 9.84033 37.4402 9.98224 36.8959 9.98224H34.8513V18.6581C34.8513 19.3333 34.6737 19.8558 34.3186 20.2249H34.3191Z" fill="white"/>
    <path d="M43.4763 20.8084C41.7418 20.8084 40.3849 20.3228 39.4061 19.3512C38.4269 18.3802 37.9375 17.0373 37.9375 15.324C37.9375 13.6105 38.4237 12.2329 39.3967 11.2296C40.3692 10.2263 41.688 9.72461 43.3519 9.72461C45.0158 9.72461 46.2767 10.1847 47.2684 11.1053C48.2603 12.026 48.7565 13.206 48.7565 14.6455C48.7565 15.117 48.6253 15.4768 48.3627 15.7253C48.0999 15.9737 47.726 16.098 47.2393 16.098H41.7292V16.3464C41.7292 16.8627 41.899 17.2874 42.2379 17.6221C42.5769 17.9564 43.0088 18.1238 43.5337 18.1238C43.9624 18.1238 44.3448 18.0537 44.6805 17.9138C45.0164 17.7739 45.3731 17.538 45.7507 17.2068C45.9555 17.0285 46.1456 16.9027 46.3221 16.8294C46.4981 16.7561 46.7075 16.7197 46.9509 16.7197C47.3479 16.7197 47.6868 16.8408 47.9684 17.0831C48.2499 17.3254 48.3909 17.6466 48.3909 18.048C48.3909 18.3474 48.3047 18.6343 48.1317 18.9078C47.7798 19.4941 47.1865 19.9574 46.3508 20.2979C45.5157 20.6383 44.5573 20.8088 43.4757 20.8088L43.4763 20.8084ZM41.7867 13.9765H45.0891C45.0571 13.505 44.8889 13.1275 44.585 12.8442C44.281 12.5609 43.8988 12.419 43.4381 12.419C42.9774 12.419 42.6124 12.5655 42.3053 12.8588C41.9982 13.152 41.8253 13.5247 41.7867 13.9765Z" fill="white"/>
    <path d="M54.2648 20.6931C52.9591 20.6931 51.9449 20.2139 51.2214 19.2552C50.4981 18.2966 50.1367 16.957 50.1367 15.2373C50.1367 13.5177 50.5065 12.2195 51.2455 11.2672C51.9846 10.3148 53.0134 9.83864 54.3317 9.83864C55.0868 9.83864 55.7413 10.0284 56.2949 10.4074C56.8485 10.7863 57.2308 11.2818 57.4418 11.8931H57.5185V8.53901C57.5185 7.86997 57.6961 7.36519 58.0513 7.02469C58.4065 6.68418 58.8849 6.51367 59.4865 6.51367C60.0882 6.51367 60.5666 6.68418 60.9217 7.02469C61.2769 7.36571 61.4545 7.8736 61.4545 8.54889V18.7535C61.4545 19.4226 61.2769 19.9274 60.9217 20.2678C60.5666 20.6084 60.0882 20.7789 59.4865 20.7789C58.8849 20.7789 58.4065 20.6084 58.0513 20.2678C57.6961 19.9274 57.5185 19.422 57.5185 18.7535V18.7151H57.4418C57.2559 19.2823 56.8735 19.7533 56.2949 20.1291C55.7156 20.505 55.0388 20.6926 54.2642 20.6926L54.2648 20.6931ZM54.6105 17.0385C54.9046 17.4623 55.3176 17.6738 55.8488 17.6738C56.38 17.6738 56.7941 17.4638 57.0918 17.0433C57.3895 16.6227 57.5384 16.0336 57.5384 15.2757C57.5384 14.5178 57.388 13.9252 57.0872 13.4983C56.7864 13.0716 56.3732 12.8584 55.8488 12.8584C55.3245 12.8584 54.9129 13.0736 54.6152 13.5035C54.3176 13.9336 54.1687 14.5215 54.1687 15.2665C54.1687 16.0113 54.3159 16.6154 54.6105 17.0391V17.0385Z" fill="white"/>
    <path d="M67.2452 20.6931C65.9396 20.6931 64.9253 20.2139 64.202 19.2552C63.4786 18.2966 63.1172 16.957 63.1172 15.2373C63.1172 13.5177 63.487 12.2195 64.226 11.2672C64.965 10.3148 65.9939 9.83864 67.3121 9.83864C68.0673 9.83864 68.7217 10.0284 69.2753 10.4074C69.8289 10.7863 70.2113 11.2818 70.4223 11.8931H70.499V8.53901C70.499 7.86997 70.6766 7.36519 71.0318 7.02469C71.3869 6.68418 71.8653 6.51367 72.467 6.51367C73.0686 6.51367 73.547 6.68418 73.9022 7.02469C74.2574 7.36571 74.4349 7.8736 74.4349 8.54889V18.7535C74.4349 19.4226 74.2574 19.9274 73.9022 20.2678C73.547 20.6084 73.0686 20.7789 72.467 20.7789C71.8653 20.7789 71.3869 20.6084 71.0318 20.2678C70.6766 19.9274 70.499 19.422 70.499 18.7535V18.7151H70.4223C70.2369 19.2823 69.854 19.7533 69.2753 20.1291C68.6962 20.505 68.0193 20.6926 67.2448 20.6926L67.2452 20.6931ZM67.591 17.0385C67.885 17.4623 68.2982 17.6738 68.8293 17.6738C69.3605 17.6738 69.7751 17.4638 70.0723 17.0433C70.37 16.6227 70.5189 16.0336 70.5189 15.2757C70.5189 14.5178 70.3685 13.9252 70.0676 13.4983C69.7668 13.0716 69.3542 12.8584 68.8293 12.8584C68.3044 12.8584 67.8934 13.0736 67.5958 13.5035C67.298 13.9336 67.1492 14.5215 67.1492 15.2665C67.1492 16.0113 67.2965 16.6154 67.591 17.0391V17.0385Z" fill="white"/>
    <path d="M78.8712 24.4102C78.0517 24.4102 77.4266 24.2574 76.9947 23.9517C76.5627 23.646 76.3465 23.203 76.3465 22.6234C76.3465 22.2413 76.4713 21.9419 76.721 21.7252C76.9706 21.5084 77.3096 21.4003 77.7384 21.4003C77.7833 21.4003 77.8517 21.4018 77.9447 21.4049C78.0377 21.408 78.1061 21.4097 78.151 21.4097C78.6503 21.4097 79.0086 21.3202 79.2264 21.1419L79.2744 21.1034L76.1543 12.7811C75.9945 12.3606 75.9141 11.9592 75.9141 11.5771C75.9141 11.0547 76.1109 10.6201 76.5043 10.2728C76.898 9.92558 77.389 9.75195 77.9775 9.75195C78.5151 9.75195 78.9281 9.8762 79.2159 10.1247C79.5037 10.3732 79.7278 10.7937 79.888 11.3858L81.597 17.7306H81.6738L83.3826 11.3479C83.5299 10.8 83.7587 10.3971 84.0689 10.1392C84.3791 9.88139 84.7901 9.75247 85.3026 9.75247C85.8655 9.75247 86.3252 9.91674 86.6803 10.2448C87.0354 10.5728 87.213 10.9918 87.213 11.5013C87.213 11.8771 87.1362 12.2784 86.9827 12.7052L84.3525 20.1963C83.8213 21.6997 83.1314 22.7779 82.2837 23.4308C81.4356 24.0837 80.298 24.4102 78.8712 24.4102Z" fill="white"/>
    <path d="M94.4263 20.7789C92.9477 20.7789 91.7381 20.5497 90.7975 20.0911C89.8569 19.6326 89.2265 19.04 88.9064 18.3138C88.7653 18.0081 88.6953 17.6895 88.6953 17.3583C88.6953 16.8743 88.8599 16.4792 89.1899 16.1735C89.5195 15.8678 89.9369 15.715 90.4429 15.715C90.8399 15.715 91.1772 15.7883 91.4556 15.9349C91.734 16.0816 92.0076 16.3424 92.2761 16.7184C92.7242 17.3552 93.457 17.6738 94.4743 17.6738C95.076 17.6738 95.5544 17.5642 95.9095 17.3442C96.2647 17.1243 96.4423 16.8426 96.4423 16.4984C96.4423 16.1798 96.2903 15.9349 95.9863 15.7628C95.6824 15.5908 95.1366 15.4348 94.3495 15.2945L92.9577 15.046C91.5752 14.8038 90.5192 14.3405 89.7896 13.6559C89.0599 12.9713 88.6953 12.0969 88.6953 11.0333C88.6953 10.1287 88.9403 9.33075 89.4297 8.63986C89.919 7.94898 90.5944 7.42185 91.455 7.05848C92.3158 6.69562 93.2935 6.51367 94.3877 6.51367C95.7633 6.51367 96.9233 6.74605 97.8675 7.21131C98.8114 7.67658 99.4626 8.33887 99.8209 9.1987C99.9363 9.47266 99.9938 9.75598 99.9938 10.0492C99.9938 10.5077 99.8386 10.8789 99.5285 11.1622C99.2177 11.4455 98.8098 11.5906 98.3042 11.5968C97.8692 11.5968 97.504 11.5173 97.21 11.3582C96.9155 11.1991 96.6471 10.9345 96.4036 10.5649C95.9874 9.93429 95.3314 9.61874 94.4357 9.61874C93.8914 9.61874 93.471 9.72375 93.1733 9.93429C92.8756 10.1443 92.7268 10.412 92.7268 10.7369C92.7268 11.0426 92.8788 11.2818 93.1828 11.4538C93.4867 11.6259 93.9938 11.7756 94.7042 11.903L96.096 12.1514C97.5933 12.4191 98.6974 12.873 99.4078 13.5129C100.118 14.1529 100.473 15.0273 100.473 16.1355C100.473 17.5688 99.9389 18.7011 98.8698 19.5323C97.8007 20.3636 96.3195 20.7794 94.4253 20.7794L94.4263 20.7789Z" fill="white"/>
    <path d="M106.311 20.7786C105.62 20.7786 105.079 20.6112 104.689 20.2769C104.298 19.9426 103.994 19.4025 103.777 18.6571L102.068 12.7136C101.908 12.1595 101.828 11.7296 101.828 11.4239C101.828 10.9399 102.007 10.5401 102.366 10.2246C102.724 9.90901 103.175 9.7515 103.719 9.7515C104.212 9.7515 104.622 9.90121 104.948 10.2006C105.275 10.5001 105.489 10.9139 105.592 11.4425L106.676 17.109H106.753L107.838 11.5668C107.953 10.9809 108.198 10.5318 108.572 10.2194C108.947 9.90745 109.431 9.75098 110.027 9.75098C110.622 9.75098 111.099 9.90693 111.476 10.2194C111.854 10.5318 112.1 10.9835 112.216 11.5761L113.309 17.1084H113.386L114.481 11.4041C114.576 10.8946 114.786 10.4918 115.11 10.1954C115.432 9.89914 115.834 9.75098 116.314 9.75098C116.846 9.75098 117.284 9.90693 117.629 10.2194C117.975 10.5318 118.148 10.9232 118.148 11.3947C118.148 11.688 118.071 12.1116 117.917 12.6658L116.209 18.6379C115.997 19.3895 115.691 19.9343 115.287 20.2717C114.883 20.6091 114.33 20.778 113.626 20.778C112.877 20.778 112.299 20.6076 111.893 20.2671C111.487 19.9265 111.2 19.377 111.033 18.6186L109.978 13.7455H109.901L108.854 18.6571C108.694 19.4025 108.414 19.9422 108.015 20.2769C107.614 20.6112 107.046 20.7786 106.311 20.7786Z" fill="white"/>
    <path d="M122.754 20.693C121.768 20.693 120.926 20.3889 120.23 19.7806C119.532 19.1724 119.184 18.4031 119.184 17.4731C119.184 16.4666 119.56 15.6878 120.312 15.1368C121.064 14.5858 122.153 14.2655 123.581 14.1766L125.903 14.0332V13.517C125.903 13.1729 125.785 12.9057 125.548 12.7144C125.312 12.523 125.004 12.4279 124.627 12.4279C124.326 12.4279 124.07 12.4804 123.859 12.5854C123.647 12.6904 123.369 12.8994 123.024 13.2113C122.562 13.6319 122.048 13.8419 121.477 13.8419C121.01 13.8419 120.628 13.7129 120.332 13.4552C120.033 13.1973 119.885 12.8646 119.885 12.4564C119.885 12.2403 119.91 12.0459 119.961 11.8737C120.16 11.1984 120.692 10.6713 121.56 10.2923C122.427 9.91337 123.52 9.72363 124.837 9.72363C126.304 9.72363 127.487 10.0563 128.39 10.7223C129.292 11.3882 129.743 12.2558 129.743 13.3262V18.8106C129.743 19.4666 129.568 19.959 129.215 20.287C128.864 20.615 128.39 20.7793 127.794 20.7793C127.258 20.7793 126.822 20.6421 126.489 20.3686C126.156 20.0947 125.961 19.6808 125.903 19.1267H125.827C125.558 19.6236 125.141 20.0089 124.574 20.2828C124.008 20.5569 123.401 20.6935 122.755 20.6935L122.754 20.693ZM124.223 18.075C124.676 18.075 125.07 17.9591 125.403 17.7262C125.736 17.4938 125.903 17.1898 125.903 16.8138V16.1261L124.233 16.241C123.861 16.2665 123.574 16.3621 123.369 16.5275C123.163 16.6933 123.061 16.9064 123.061 17.1679C123.061 17.4481 123.167 17.6696 123.379 17.8318C123.589 17.994 123.871 18.0755 124.223 18.0755V18.075Z" fill="white"/>
    <path d="M135.079 23.8321C134.723 24.1725 134.245 24.3431 133.644 24.3431C133.041 24.3431 132.563 24.1725 132.208 23.8321C131.853 23.491 131.676 22.9863 131.676 22.3178V11.7783C131.676 11.1093 131.853 10.6044 132.208 10.2639C132.563 9.92345 133.041 9.75293 133.644 9.75293C134.245 9.75293 134.725 9.92345 135.083 10.2639C135.442 10.605 135.62 11.1128 135.62 11.7882V11.8931H135.688C135.944 11.2433 136.346 10.7386 136.892 10.3788C137.44 10.0191 138.09 9.83871 138.846 9.83871C140.178 9.83871 141.201 10.3071 141.918 11.2433C142.635 12.1796 142.993 13.5208 142.993 15.266C142.993 17.0111 142.638 18.3445 141.928 19.2839C141.217 20.2237 140.207 20.6932 138.895 20.6932C138.12 20.6932 137.455 20.5195 136.898 20.1723C136.341 19.8251 135.938 19.3395 135.689 18.7152H135.611V22.3172C135.611 22.9863 135.434 23.491 135.079 23.8315V23.8321ZM136.053 17.0288C136.353 17.4587 136.764 17.6739 137.282 17.6739C137.801 17.6739 138.21 17.4577 138.511 17.0241C138.811 16.591 138.962 16.0052 138.962 15.266C138.962 14.5267 138.81 13.9492 138.506 13.5125C138.202 13.0763 137.794 12.858 137.282 12.858C136.769 12.858 136.361 13.0763 136.058 13.5125C135.754 13.9486 135.599 14.5366 135.592 15.2754C135.599 16.0145 135.752 16.5989 136.053 17.0288Z" fill="white"/>
    <path d="M5.39601 7.5033C5.39601 7.5033 3.79419 9.49953 1.42253 8.38653C1.42253 8.38653 -1.30062 7.01256 0.788487 3.88773C0.788487 3.88773 2.3903 1.67162 4.32064 3.00503C4.32064 3.00503 6.55546 4.40863 5.97 6.42877L5.39601 7.5033Z" fill="#C69C6D"/>
    <path d="M15.3789 5.62045C15.3789 5.62045 17.6472 6.81611 19.3769 4.8547C19.3769 4.8547 21.3246 2.51434 18.1574 0.477041C18.1574 0.477041 15.8014 -0.920317 14.5647 1.06811C14.5647 1.06811 13.0772 3.24161 14.4226 4.86251L15.3789 5.62045Z" fill="#C69C6D"/>
    <path d="M4.29441 6.63066C4.29441 6.63066 3.51465 7.60226 2.36042 7.06058C2.36042 7.06058 1.03489 6.39206 2.05175 4.87097C2.05175 4.87097 2.83152 3.79228 3.77109 4.44105C3.77109 4.44105 4.85847 5.12414 4.57383 6.10717L4.29441 6.63014V6.63066Z" fill="#F8EBC9"/>
    <path d="M16.177 4.2869C16.177 4.2869 17.2811 4.86862 18.123 3.91417C18.123 3.91417 19.0709 2.77517 17.5292 1.78381C17.5292 1.78381 16.3823 1.10385 15.7807 2.07181C15.7807 2.07181 15.0568 3.12971 15.7117 3.91832L16.177 4.28742V4.2869Z" fill="#F8EBC9"/>
    <path d="M8.13093 13.918C8.13093 13.918 6.04182 17.1171 5.92223 19.1035C5.92223 19.1035 5.06047 18.9277 4.58258 18.9392C4.58258 18.9392 3.02202 16.8738 1.13765 18.2197C1.13765 18.2197 -0.707553 19.5214 0.318197 22.1877C0.318197 22.1877 1.5633 25.6821 5.27094 25.4591C5.27094 25.4591 6.11128 25.3921 6.66855 24.971C6.66855 24.971 5.80001 25.0952 9.02977 24.6741C9.02977 24.6741 12.0344 24.6019 15.5687 24.6689C16.6252 24.6893 17.5658 25.0812 19.2137 25.063C19.2137 25.063 22.3317 26.1058 23.7104 21.7922C23.7104 21.7922 24.3909 19.7532 22.4987 18.2806C22.4987 18.2806 21.1361 17.3703 19.62 19.1081C19.62 19.1081 18.6892 19.1091 18.2987 19.222C18.2987 19.222 17.3862 15.8518 16.56 14.483L8.13145 13.918H8.13093Z" fill="#C69C6D"/>
    <path d="M8.97281 17.0531L8.44531 21.8903C8.44531 21.8903 11.7127 23.689 16.2899 21.6589L15.2646 16.3242C15.2646 16.3242 11.6745 17.51 8.97281 17.0525V17.0531Z" fill="#F8EBC9"/>
    <path d="M6.79267 16.5703C6.79267 16.5703 5.44729 22.4088 8.20752 25.2248C8.20752 25.2248 9.12098 26.2386 10.6768 25.9427C10.6768 25.9427 11.9403 25.5981 11.9904 24.4773C12.062 22.873 10.6977 22.0708 10.0945 20.3953C10.0945 20.3953 9.21186 17.8669 9.60409 16.9098L6.79267 16.5703Z" fill="#C69C6D"/>
    <path d="M16.5234 15.4555C16.5234 15.4555 19.3511 21.5145 17.1037 24.7505C17.1037 24.7505 16.3735 25.902 14.79 25.8698C14.79 25.8698 13.4864 25.7403 13.2487 24.6434C12.9082 23.0735 14.0838 22.287 14.4311 20.3031C14.4311 20.3031 14.7273 18.884 14.1945 16.3247L16.5239 15.4551L16.5234 15.4555Z" fill="#C69C6D"/>
    <path d="M12.7219 16.7938C12.7219 16.7938 5.66952 18.8073 3.35897 13.5542C3.35897 13.5542 1.17952 8.44922 5.62043 4.3034C5.62043 4.3034 9.73859 0.778292 14.0223 2.63884C14.0223 2.63884 18.6288 4.28989 19.4978 9.45564C19.4978 9.45564 20.7817 15.0019 12.7213 16.7944L12.7219 16.7938Z" fill="#C69C6D"/>
    <path d="M14.2074 10.9944C13.0218 10.29 11.3887 10.6736 11.3887 10.6736C11.3887 10.6736 9.72315 10.8795 8.85826 11.9504C8.85826 11.9504 7.87585 12.9573 8.22892 14.5819C8.22892 14.5819 8.5005 16.0473 10.1822 16.4414C10.1822 16.4414 11.1892 16.6748 12.4321 16.4528C13.6752 16.2309 14.5375 15.6626 14.5375 15.6626C15.9764 14.7113 15.7184 13.2427 15.7184 13.2427C15.4813 11.5974 14.2079 10.9933 14.2079 10.9933L14.2074 10.9944Z" fill="#F8EBC9"/>
    <path d="M7.15687 12.6574C7.80011 12.6574 8.32155 12.1384 8.32155 11.4981C8.32155 10.8579 7.80011 10.3389 7.15687 10.3389C6.51364 10.3389 5.99219 10.8579 5.99219 11.4981C5.99219 12.1384 6.51364 12.6574 7.15687 12.6574Z" fill="#534741"/>
    <path d="M7.39001 11.6059C7.63559 11.6059 7.83469 11.4077 7.83469 11.1633C7.83469 10.9189 7.63559 10.7207 7.39001 10.7207C7.14441 10.7207 6.94531 10.9189 6.94531 11.1633C6.94531 11.4077 7.14441 11.6059 7.39001 11.6059Z" fill="white"/>
    <path d="M15.442 11.0403C16.0853 11.0403 16.6067 10.5212 16.6067 9.88095C16.6067 9.2407 16.0853 8.72168 15.442 8.72168C14.7988 8.72168 14.2773 9.2407 14.2773 9.88095C14.2773 10.5212 14.7988 11.0403 15.442 11.0403Z" fill="#534741"/>
    <path d="M15.5905 9.98456C15.8303 9.98456 16.0247 9.79105 16.0247 9.55234C16.0247 9.31363 15.8303 9.12012 15.5905 9.12012C15.3507 9.12012 15.1562 9.31363 15.1562 9.55234C15.1562 9.79105 15.3507 9.98456 15.5905 9.98456Z" fill="white"/>
    <path d="M12.6876 12.2883C12.4605 11.7254 11.7951 11.8236 11.618 11.8611C11.4383 11.887 10.7803 12.0232 10.762 12.6299C10.762 12.6299 10.738 13.0733 11.112 13.3582C11.112 13.3582 11.3773 13.5926 11.8703 13.5282V13.5303C11.886 13.5277 11.9005 13.5245 11.9152 13.522C11.9298 13.5199 11.9445 13.5172 11.9597 13.5147V13.5126C12.3915 13.4128 12.6005 13.1144 12.6005 13.1144C12.86 12.7234 12.6876 12.2889 12.6876 12.2889V12.2883Z" fill="#534741"/>
    <path d="M4.23679 21.0291C4.96537 22.3074 4.97896 23.4989 4.36319 24.077C3.6273 24.7673 2.18686 23.9361 1.45776 22.6578C0.729189 21.3795 0.7318 19.9374 1.60765 19.4425C2.48351 18.9482 3.50823 19.7508 4.23732 21.0291H4.23679Z" fill="#B2875B"/>
    <path d="M19.6976 21.1688C19.0807 22.5043 19.169 23.6927 19.8323 24.2161C20.6246 24.842 21.9887 23.8917 22.6061 22.5562C23.2229 21.2208 23.0975 19.7839 22.1825 19.3654C21.2675 18.9464 20.3148 19.8332 19.6981 21.1688H19.6976Z" fill="#B2875B"/>
    <path d="M11.7654 15.1634C11.026 15.1634 10.5899 14.8145 10.5684 14.7968C10.4791 14.7241 10.4666 14.5931 10.5397 14.5041C10.6128 14.4153 10.7444 14.4028 10.8338 14.4755C10.8531 14.4907 11.3398 14.8697 12.1686 14.707L12.1885 14.7033C13.0174 14.5406 13.3234 14.0067 13.336 13.9844C13.3919 13.8846 13.5182 13.8476 13.6191 13.9022C13.7199 13.9568 13.7575 14.0821 13.7031 14.1824C13.6869 14.212 13.2999 14.9091 12.2689 15.1114L12.2492 15.115C12.0762 15.1488 11.9143 15.1634 11.7654 15.1634Z" fill="#534741"/>
    <path d="M12.1587 15.0127C12.06 15.0127 11.9722 14.9425 11.9534 14.8422L11.6285 13.0856C11.6076 12.9728 11.6828 12.8642 11.7962 12.8433C11.91 12.8225 12.0187 12.8974 12.0395 13.0102L12.3644 14.7667C12.3853 14.8796 12.3101 14.9882 12.1967 15.0091C12.1837 15.0111 12.1712 15.0127 12.1587 15.0127Z" fill="#534741"/>
  </g>
  <defs>
    <clipPath id="clip0_2187_19008">
      <rect width="143" height="26" fill="white"/>
    </clipPath>
  </defs>
</svg>