<svg width="50" height="47" viewBox="0 0 50 47" fill="none" xmlns="http://www.w3.org/2000/svg">
<ellipse cx="25.1253" cy="23.1821" rx="24.8468" ry="23" fill="#2C2C2C"/>
<path d="M18.578 13.8444C18.5777 14.4179 18.3313 14.9678 17.893 15.3731C17.4547 15.7784 16.8604 16.006 16.2409 16.0057C15.6213 16.0054 15.0273 15.7773 14.5894 15.3716C14.1515 14.9659 13.9057 14.4157 13.906 13.8422C13.9063 13.2687 14.1527 12.7188 14.591 12.3135C15.0293 11.9082 15.6236 11.6806 16.2432 11.6809C16.8627 11.6812 17.4568 11.9093 17.8947 12.315C18.3325 12.7208 18.5784 13.2709 18.578 13.8444ZM18.6481 17.6069H13.9761V31.1435H18.6481V17.6069ZM26.03 17.6069H21.3813V31.1435H25.9832V24.0401C25.9832 20.0829 31.5546 19.7153 31.5546 24.0401V31.1435H36.1683V22.5696C36.1683 15.8987 27.9221 16.1473 25.9832 19.4234L26.03 17.6069Z" fill="#E4E4E4"/>
</svg>
