<svg width="51" height="47" viewBox="0 0 51 47" fill="none" xmlns="http://www.w3.org/2000/svg">
<ellipse cx="25.6898" cy="23.1821" rx="24.8468" ry="23" fill="#2C2C2C"/>
<path d="M20.1152 10.8958H31.2644C35.5118 10.8958 38.9627 14.0902 38.9627 18.0218V28.3423C38.9627 30.2323 38.1516 32.0448 36.7079 33.3812C35.2642 34.7176 33.3061 35.4684 31.2644 35.4684H20.1152C15.8679 35.4684 12.417 32.274 12.417 28.3423V18.0218C12.417 16.1319 13.2281 14.3193 14.6718 12.9829C16.1155 11.6465 18.0735 10.8958 20.1152 10.8958ZM19.8498 13.353C18.5825 13.353 17.3672 13.819 16.4711 14.6485C15.575 15.478 15.0716 16.603 15.0716 17.7761V28.5881C15.0716 31.033 17.2085 33.0111 19.8498 33.0111H31.5299C32.7972 33.0111 34.0125 32.5451 34.9086 31.7156C35.8047 30.8862 36.3081 29.7611 36.3081 28.5881V17.7761C36.3081 15.3311 34.1712 13.353 31.5299 13.353H19.8498ZM32.6581 15.196C33.0981 15.196 33.5201 15.3578 33.8313 15.6458C34.1424 15.9338 34.3172 16.3244 34.3172 16.7318C34.3172 17.1391 34.1424 17.5297 33.8313 17.8177C33.5201 18.1057 33.0981 18.2675 32.6581 18.2675C32.2181 18.2675 31.7961 18.1057 31.4849 17.8177C31.1738 17.5297 30.999 17.1391 30.999 16.7318C30.999 16.3244 31.1738 15.9338 31.4849 15.6458C31.7961 15.3578 32.2181 15.196 32.6581 15.196ZM25.6898 17.0389C27.4499 17.0389 29.1379 17.6861 30.3825 18.8382C31.6271 19.9903 32.3263 21.5528 32.3263 23.1821C32.3263 24.8113 31.6271 26.3739 30.3825 27.5259C29.1379 28.678 27.4499 29.3252 25.6898 29.3252C23.9298 29.3252 22.2418 28.678 20.9972 27.5259C19.7526 26.3739 19.0534 24.8113 19.0534 23.1821C19.0534 21.5528 19.7526 19.9903 20.9972 18.8382C22.2418 17.6861 23.9298 17.0389 25.6898 17.0389ZM25.6898 19.4962C24.6338 19.4962 23.621 19.8845 22.8742 20.5758C22.1275 21.267 21.708 22.2045 21.708 23.1821C21.708 24.1596 22.1275 25.0972 22.8742 25.7884C23.621 26.4796 24.6338 26.868 25.6898 26.868C26.7459 26.868 27.7587 26.4796 28.5054 25.7884C29.2522 25.0972 29.6717 24.1596 29.6717 23.1821C29.6717 22.2045 29.2522 21.267 28.5054 20.5758C27.7587 19.8845 26.7459 19.4962 25.6898 19.4962Z" fill="#E4E4E4"/>
</svg>
