<svg width="18" height="19" viewBox="0 0 18 19" fill="none" xmlns="http://www.w3.org/2000/svg">
<path d="M6.75 0.75C8.47391 0.75 10.1272 1.43482 11.3462 2.65381C12.5652 3.87279 13.25 5.52609 13.25 7.25C13.25 8.86 12.66 10.34 11.69 11.48L11.96 11.75H12.75L17.75 16.75L16.25 18.25L11.25 13.25V12.46L10.98 12.19C9.80055 13.1968 8.30071 13.7499 6.75 13.75C5.02609 13.75 3.37279 13.0652 2.15381 11.8462C0.934819 10.6272 0.25 8.97391 0.25 7.25C0.25 5.52609 0.934819 3.87279 2.15381 2.65381C3.37279 1.43482 5.02609 0.75 6.75 0.75ZM6.75 2.75C4.25 2.75 2.25 4.75 2.25 7.25C2.25 9.75 4.25 11.75 6.75 11.75C9.25 11.75 11.25 9.75 11.25 7.25C11.25 4.75 9.25 2.75 6.75 2.75Z" fill="white"/>
</svg>
