<svg width="111" height="108" viewBox="0 0 111 108" fill="none" xmlns="http://www.w3.org/2000/svg">
<path fill-rule="evenodd" clip-rule="evenodd" d="M51.2609 24.4534L57.6937 18.1756C62.8721 13.1141 71.9666 9.60638 80.9966 8.34298C85.0001 7.7343 89.0717 7.68146 93.0904 8.18603C96.6525 8.70395 98.8317 9.72409 99.8448 10.7207C100.866 11.7094 101.911 13.836 102.442 17.3124C102.957 20.6631 102.917 24.7673 102.281 29.1146C100.995 37.9271 97.3923 46.8023 92.2058 51.8559L56.4554 86.7526L47.2404 77.7597C46.8671 77.3949 46.4238 77.1054 45.9359 76.9078C45.448 76.7101 44.9249 76.6082 44.3967 76.6079C43.8684 76.6075 43.3452 76.7087 42.857 76.9056C42.3688 77.1026 41.9251 77.3915 41.5513 77.7558C40.7964 78.4915 40.3718 79.4897 40.3711 80.5309C40.3707 81.0464 40.4744 81.557 40.6762 82.0335C40.878 82.5099 41.174 82.9429 41.5473 83.3077L53.6089 95.0785C53.9823 95.4439 54.426 95.7338 54.9145 95.9316C55.4029 96.1294 55.9265 96.2312 56.4554 96.2312C56.9842 96.2312 57.5079 96.1294 57.9963 95.9316C58.4848 95.7338 58.9284 95.4439 59.3019 95.0785L63.7004 90.7783L73.1084 106.088C73.4221 106.601 73.8516 107.037 74.3641 107.363C74.8766 107.689 75.4586 107.897 76.0658 107.97C76.6731 108.044 77.2894 107.981 77.868 107.787C78.4466 107.592 78.9721 107.272 79.4045 106.849L95.4866 91.1549C95.9282 90.7233 96.2606 90.1971 96.4574 89.6182C96.6542 89.0392 96.71 88.4235 96.6204 87.8198L92.8813 62.3006L97.8989 57.4118C104.774 50.6945 108.819 39.9517 110.242 30.2211C110.966 25.3009 111.046 20.412 110.395 16.1431C109.751 11.9998 108.336 7.90353 105.538 5.16485C102.732 2.43401 98.5341 1.04504 94.2804 0.425112C89.4913 -0.190162 84.6368 -0.137317 79.8629 0.582056C69.8839 1.95532 58.8677 5.90249 52.0006 12.6119L46.9911 17.5086L20.8416 13.8596C20.2231 13.7721 19.5921 13.8265 18.9989 14.0186C18.4057 14.2107 17.8665 14.5351 17.4242 14.9661L1.3421 30.6605C0.90924 31.0825 0.580783 31.5954 0.381752 32.16C0.18272 32.7246 0.118365 33.3262 0.193587 33.9187C0.26881 34.5113 0.481626 35.0793 0.815824 35.5795C1.15002 36.0796 1.59679 36.4988 2.12208 36.8049L17.8021 45.9862L13.4037 50.2786C13.0292 50.6431 12.7322 51.0761 12.5295 51.5528C12.3268 52.0294 12.2225 52.5405 12.2225 53.0566C12.2225 53.5727 12.3268 54.0837 12.5295 54.5604C12.7322 55.037 13.0292 55.47 13.4037 55.8345L25.4652 67.6053C25.839 67.9701 26.2828 68.2595 26.7712 68.457C27.2596 68.6544 27.7831 68.756 28.3117 68.756C28.8404 68.756 29.3639 68.6544 29.8523 68.457C30.3407 68.2595 30.7845 67.9701 31.1583 67.6053C31.5321 67.2405 31.8286 66.8075 32.0309 66.3308C32.2332 65.8542 32.3373 65.3433 32.3373 64.8274C32.3373 64.3115 32.2332 63.8007 32.0309 63.324C31.8286 62.8474 31.5321 62.4143 31.1583 62.0495L21.9352 53.0644L27.1378 47.9951L51.2609 24.4534ZM77.354 97.7466L69.5542 85.0576L85.773 69.2376L88.3783 86.988L77.354 97.7466ZM23.6721 40.2734L39.8828 24.4534L21.694 21.9109L10.6777 32.6616L23.6721 40.2734ZM15.0682 75.4604C15.442 75.0962 15.7386 74.6636 15.9411 74.1874C16.1436 73.7113 16.248 73.2008 16.2484 72.6853C16.2488 72.1697 16.1451 71.6592 15.9433 71.1827C15.7415 70.7063 15.4455 70.2733 15.0722 69.9085C14.6989 69.5437 14.2556 69.2542 13.7677 69.0566C13.2798 68.859 12.7568 68.7571 12.2285 68.7567C11.7002 68.7563 11.177 68.8575 10.6888 69.0545C10.2006 69.2514 9.75695 69.5403 9.38314 69.9046L1.3421 77.7518C0.588221 78.4886 0.165119 79.4874 0.165873 80.5286C0.166627 81.5698 0.591175 82.568 1.34612 83.3038C2.10107 84.0395 3.12457 84.4524 4.19147 84.4516C5.25837 84.4509 6.28128 84.0366 7.03516 83.2998L15.0682 75.4604ZM27.1297 87.2313C27.5137 86.8694 27.82 86.4364 28.0307 85.9577C28.2414 85.479 28.3523 84.9641 28.357 84.4432C28.3616 83.9222 28.2599 83.4055 28.0577 82.9233C27.8556 82.4411 27.557 82.0031 27.1795 81.6347C26.802 81.2663 26.3532 80.9749 25.859 80.7776C25.3649 80.5804 24.8355 80.4811 24.3017 80.4856C23.7678 80.4901 23.2403 80.5984 22.7497 80.804C22.2592 81.0096 21.8156 81.3086 21.4447 81.6833L5.36262 97.3778C4.60874 98.1145 4.18564 99.1134 4.18639 100.155C4.18715 101.196 4.61169 102.194 5.36664 102.93C6.12159 103.665 7.14509 104.078 8.21199 104.078C9.27889 104.077 10.3018 103.663 11.0557 102.926L27.1297 87.2313ZM39.1913 99.0022C39.5651 98.6379 39.8617 98.2053 40.0642 97.7291C40.2667 97.253 40.3712 96.7426 40.3715 96.227C40.3719 95.7115 40.2682 95.2009 40.0664 94.7245C39.8646 94.248 39.5686 93.815 39.1953 93.4502C38.822 93.0854 38.3788 92.796 37.8908 92.5983C37.4029 92.4007 36.8799 92.2988 36.3516 92.2984C35.8233 92.2981 35.3002 92.3993 34.812 92.5962C34.3237 92.7932 33.8801 93.082 33.5063 93.4463L25.4652 101.294C24.7113 102.03 24.2882 103.029 24.289 104.07C24.2897 105.112 24.7143 106.11 25.4692 106.845C26.2242 107.581 27.2477 107.994 28.3146 107.993C29.3815 107.993 30.4044 107.578 31.1583 106.842L39.1913 99.0022ZM72.5375 47.1711C73.8564 47.1711 75.1624 46.9176 76.3809 46.4251C77.5994 45.9325 78.7065 45.2105 79.6391 44.3004C80.5717 43.3903 81.3115 42.3098 81.8162 41.1207C82.3209 39.9315 82.5807 38.657 82.5807 37.3699C82.5807 36.0828 82.3209 34.8083 81.8162 33.6192C81.3115 32.43 80.5717 31.3496 79.6391 30.4394C78.7065 29.5293 77.5994 28.8074 76.3809 28.3148C75.1624 27.8222 73.8564 27.5687 72.5375 27.5687C69.8738 27.5687 67.3193 28.6013 65.4358 30.4394C63.5523 32.2775 62.4942 34.7705 62.4942 37.3699C62.4942 39.9694 63.5523 42.4623 65.4358 44.3004C67.3193 46.1385 69.8738 47.1711 72.5375 47.1711Z" fill="#545454"/>
</svg>
